<svg xmlns="http://www.w3.org/2000/svg" viewBox="0 0 19.916 22.761">
  <defs>
    <style>
      .cls-1 {
        fill: #f8f8f8;
      }
    </style>
  </defs>
  <path id="copy-solid_1_" data-name="copy-solid (1)" class="cls-1" d="M14.226,19.916v1.778a1.067,1.067,0,0,1-1.067,1.067H1.067A1.067,1.067,0,0,1,0,21.694V5.335A1.067,1.067,0,0,1,1.067,4.268h3.2V17.426a2.492,2.492,0,0,0,2.489,2.489Zm0-15.292V0H6.757A1.067,1.067,0,0,0,5.69,1.067V17.426a1.067,1.067,0,0,0,1.067,1.067H18.849a1.067,1.067,0,0,0,1.067-1.067V5.69H15.292A1.07,1.07,0,0,1,14.226,4.623ZM19.6,3.244,16.672.312A1.067,1.067,0,0,0,15.917,0h-.269V4.268h4.268V4a1.067,1.067,0,0,0-.312-.754Z"/>
</svg>
