<svg xmlns="http://www.w3.org/2000/svg" viewBox="0 0 20.682 23.636">
  <defs>
    <style>
      .cls-1 {
        fill: #f8f8f8;
      }
    </style>
  </defs>
  <path id="paste-solid_1_" data-name="paste-solid (1)" class="cls-1" d="M5.909,8.494A2.588,2.588,0,0,1,8.494,5.909h6.278V2.585a1.108,1.108,0,0,0-1.108-1.108H9.943a2.952,2.952,0,0,0-5.114,0H1.108A1.108,1.108,0,0,0,0,2.585V18.1A1.108,1.108,0,0,0,1.108,19.2h4.8ZM7.386,1.847A1.108,1.108,0,1,1,6.278,2.955,1.108,1.108,0,0,1,7.386,1.847ZM15.881,13.3h4.8v9.233a1.108,1.108,0,0,1-1.108,1.108H8.494a1.108,1.108,0,0,1-1.108-1.108V8.494A1.108,1.108,0,0,1,8.494,7.386h6.278v4.8A1.111,1.111,0,0,0,15.881,13.3Zm4.8-1.757v.28H16.25V7.386h.28a1.108,1.108,0,0,1,.783.324l3.044,3.044A1.108,1.108,0,0,1,20.682,11.538Z"/>
</svg>
